PathFileType	4	(X/Y/Z)	 s07c0203.trc
DataRate	CameraRate	NumFrames	NumMarkers	Units	OrigDataRate	OrigDataStartFrame	OrigNumFrames
200	200	6	48	mm	200	251	2000
Frame#	Time	racr			lacr			c7			jug			rlel			rdr			llel			ldr			s2			lic			ric			lasi			rasi			rpsi			lpsi			rgt			lgt			rth1			rth2			rth3			rth4			rlfc			rmfc			rsh1			rsh2			rsh3			rsh4			rlmal			rcal			rtoe			rmt5			lth1			lth2			lth4			lth3			llfc			lmfc			lsh1			lsh2			lsh3			lsh4			llmal			lcal			ltoe			lmt5			SBIKE			LBIKE			RBIKE			
		X1	Y1	Z1	X2	Y2	Z2	X3	Y3	Z3	X4	Y4	Z4	X5	Y5	Z5	X6	Y6	Z6	X7	Y7	Z7	X8	Y8	Z8	X9	Y9	Z9	X10	Y10	Z10	X11	Y11	Z11	X12	Y12	Z12	X13	Y13	Z13	X14	Y14	Z14	X15	Y15	Z15	X16	Y16	Z16	X17	Y17	Z17	X18	Y18	Z18	X19	Y19	Z19	X20	Y20	Z20	X21	Y21	Z21	X22	Y22	Z22	X23	Y23	Z23	X24	Y24	Z24	X25	Y25	Z25	X26	Y26	Z26	X27	Y27	Z27	X28	Y28	Z28	X29	Y29	Z29	X30	Y30	Z30	X31	Y31	Z31	X32	Y32	Z32	X33	Y33	Z33	X34	Y34	Z34	X35	Y35	Z35	X36	Y36	Z36	X37	Y37	Z37	X38	Y38	Z38	X39	Y39	Z39	X40	Y40	Z40	X41	Y41	Z41	X42	Y42	Z42	X43	Y43	Z43	X44	Y44	Z44	X45	Y45	Z45	X46	Y46	Z46	X47	Y47	Z47	X48	Y48	Z48	
251	1.2550	445.212435	1433.472771	-72.724162	432.796320	1426.303686	-369.050912	423.756938	1460.704605	-222.483225	388.476794	1322.058405	-219.081742	466.136428	1111.663274	68.341556	689.310850	936.123242	-37.471323	464.335832	1117.074313	-505.776632	697.613775	935.259998	-426.310849	-127.454241	1202.634240	-241.783967	36.261163	1238.773446	-364.174272	34.854449	1227.958359	-87.897034	69.988415	1163.194168	-352.052139	49.524918	1179.088700	-102.662323	-100.967285	1240.450674	-189.749391	-83.330769	1248.817757	-297.121870	-22.733388	1125.250904	-40.071752	-21.153909	1091.334067	-408.904541	122.294820	1074.026723	-40.746782	208.782066	1065.441778	-53.561077	281.667587	1020.657027	-50.718845	217.706105	1096.757640	-71.953835	402.369771	946.469306	-86.264856	397.130039	931.589347	-192.357518	350.042748	813.344256	-62.405989	335.304781	726.588055	-81.417270	283.843640	657.387208	-76.518487	352.091201	723.802564	-117.611599	223.063387	536.987083	-77.289087	151.083493	508.151151	-106.488947	431.810493	433.941249	-119.522876	349.689461	415.542014	-49.056122	40.946185	986.028720	-414.275699	112.995992	934.909288	-416.761564	140.975083	957.495484	-408.616447	149.972596	854.092859	-412.311854	248.429307	700.141970	-379.473780	232.838522	683.543351	-281.142724	157.871247	580.137521	-403.146870	122.999124	503.764323	-383.589879	53.619606	447.136721	-394.195770	126.091528	505.416281	-341.370897	-35.873640	346.478379	-393.930209	-115.405700	330.817325	-360.843366	151.489265	219.141698	-354.924595	68.311671	222.444641	-419.838711	-257.848016	965.071079	-232.175590	-75.558448	83.426299	-437.199848	-82.384528	78.981836	-40.305153	
252	1.2600	445.238213	1433.276847	-72.616550	432.911431	1426.237372	-368.927406	423.870336	1460.572317	-222.341736	388.551504	1321.947079	-219.030031	466.034724	1111.461397	68.465377	689.295639	936.124761	-37.343823	464.392883	1117.094672	-505.834479	697.617778	935.238677	-426.316309	-127.419904	1202.634694	-241.794895	36.304186	1238.716711	-364.223848	34.884714	1227.920589	-87.898084	70.023042	1163.157301	-352.033231	49.544376	1179.023433	-102.641981	-100.949113	1240.471962	-189.743988	-83.316102	1248.844103	-297.122715	-22.726100	1125.220320	-40.084328	-21.132486	1091.308379	-408.888583	122.296342	1073.978972	-40.743838	208.774618	1065.379094	-53.532211	281.666026	1020.588316	-50.711716	217.700845	1096.706937	-71.934861	402.375143	946.371106	-86.233611	397.117559	931.498199	-192.317799	350.029312	813.240351	-62.384667	335.287784	726.469556	-81.429540	283.880403	657.234848	-76.502569	352.105368	723.715300	-117.562719	223.091279	536.873993	-77.263346	151.108076	508.035579	-106.487849	431.849736	433.897933	-119.510829	349.736159	415.450609	-49.046715	40.950383	985.998942	-414.238720	113.002104	934.895687	-416.719179	140.979252	957.482922	-408.586237	149.988729	854.072344	-412.240551	248.436610	700.155805	-379.400446	232.814417	683.545745	-281.058851	157.835901	580.158718	-403.071793	122.959439	503.802902	-383.527824	53.576889	447.170573	-394.120071	126.048451	505.446355	-341.301227	-35.937816	346.585426	-393.891323	-115.464030	330.875958	-360.835746	151.429483	219.213668	-354.909433	68.264952	222.530177	-419.822492	-257.840217	965.074446	-232.181596	-75.549795	83.423291	-437.200351	-82.392989	78.993241	-40.281155	
253	1.2650	445.276931	1433.062201	-72.484205	433.043793	1426.143143	-368.838988	423.955454	1460.392950	-222.176061	388.594946	1321.810096	-218.998363	465.928353	1111.290660	68.599698	689.284240	936.108692	-37.237325	464.456813	1117.110637	-505.889402	697.617958	935.235042	-426.322941	-127.401059	1202.639994	-241.792892	36.397374	1239.875895	-367.849353	34.922074	1227.892269	-87.883811	70.045844	1163.100558	-351.992273	49.576298	1178.957821	-102.618971	-100.926619	1240.490738	-189.728005	-83.272893	1248.838614	-297.130618	-22.724265	1125.207687	-40.092160	-21.116459	1091.306665	-408.887953	122.294502	1073.903851	-40.729630	208.764693	1065.327306	-53.507904	281.658004	1020.518587	-50.687806	217.692261	1096.685853	-71.884996	402.319349	946.280102	-86.190482	397.088083	931.407850	-192.280740	350.023051	813.130710	-62.335137	342.317790	727.526046	-75.925833	283.892371	657.133207	-76.470110	352.037638	723.727120	-117.681888	223.083763	536.788493	-77.259331	151.126379	507.884026	-106.487445	431.885948	433.863851	-119.498932	349.773921	415.379489	-49.040212	40.968806	985.990318	-414.216181	113.023383	934.896463	-416.672806	141.001252	957.472756	-408.522116	150.024423	854.067421	-412.187371	248.445312	700.161465	-379.315655	232.799071	683.559984	-280.983457	157.819794	580.198860	-402.988186	122.905188	503.864094	-383.469898	53.510815	447.234401	-394.097669	126.035309	505.480739	-341.251042	-36.022341	346.666621	-393.843809	-115.526447	330.940135	-360.814435	151.358584	219.302867	-354.927326	68.203697	222.621224	-419.832902	-257.842060	965.078677	-232.167619	-75.548931	83.414244	-437.198429	-82.395955	78.999444	-40.289195	
254	1.2700	445.317638	1432.866623	-72.361343	433.192070	1426.100846	-368.731989	424.039158	1460.280581	-222.026656	388.670698	1321.669248	-218.946170	465.832740	1111.130271	68.707738	689.266498	936.117334	-37.185762	464.519458	1117.137099	-505.971983	697.616967	935.240517	-426.360628	-127.386355	1202.656811	-241.779948	36.403475	1238.620256	-364.288697	34.966428	1227.849740	-87.925101	70.050547	1163.070792	-351.975679	49.581944	1178.882212	-102.628788	-100.909829	1240.501493	-189.750921	-83.233362	1248.860248	-297.174490	-22.733033	1125.180058	-40.094876	-21.116813	1091.295070	-408.885124	122.291603	1073.843537	-40.723487	208.737802	1065.279455	-53.461585	281.618979	1020.465061	-50.638339	217.772596	1095.715235	-72.908352	402.289840	946.164397	-86.139779	397.056375	931.316237	-192.238592	350.009612	813.013204	-62.297182	342.313557	727.419862	-75.899640	283.899755	656.994528	-76.435587	351.481074	724.053676	-117.576040	223.108118	536.675478	-77.233563	151.232832	507.667384	-106.602489	431.934252	433.797975	-119.479361	349.816328	415.295309	-49.020721	40.997711	985.984781	-414.196987	113.044806	934.892024	-416.609230	141.009051	957.476981	-408.476523	150.047682	854.072533	-412.143936	248.456668	700.202329	-379.245550	232.821154	683.576361	-280.907373	157.771698	580.283989	-402.936138	122.856395	503.923070	-383.410000	53.465946	447.326698	-394.010773	125.999156	505.543085	-341.177671	-36.094334	346.776347	-393.805286	-115.611043	331.031388	-360.778044	151.296741	219.410151	-354.936278	68.127292	222.713855	-419.849799	-257.854433	965.072525	-232.172089	-75.554522	83.413558	-437.204500	-82.392358	78.984529	-40.318723	
255	1.2750	445.340424	1432.723208	-72.204545	433.321282	1426.058947	-368.613445	424.116008	1460.141996	-221.884760	388.721216	1321.545150	-218.852406	465.751959	1110.950732	68.777272	689.237812	936.131491	-37.127014	464.581778	1117.174274	-506.048414	697.618893	935.258214	-426.421375	-127.390932	1202.691540	-241.765674	36.474363	1238.604703	-364.275841	34.975152	1227.823293	-87.909933	70.090839	1163.010644	-351.940645	49.606798	1178.835061	-102.626204	-100.884994	1240.522964	-189.768755	-83.206295	1248.871272	-297.172695	-22.729083	1125.171059	-40.084312	-21.097564	1091.292692	-408.893731	122.274299	1073.820902	-40.700757	208.720470	1065.210850	-53.437287	281.594459	1020.397199	-50.610983	217.752839	1095.642912	-72.840373	402.263703	946.071862	-86.101805	397.010672	931.244338	-192.182601	349.986676	812.903011	-62.262275	342.270463	727.262623	-75.888122	283.911826	656.874409	-76.415302	351.489230	723.932759	-117.527507	223.112960	536.583988	-77.242414	151.212803	507.525944	-106.534145	431.988036	433.737002	-119.485379	349.882425	415.199305	-49.011874	41.005216	985.981783	-414.160979	113.077502	934.901039	-416.565042	141.027016	957.490926	-408.422944	150.096242	854.086157	-412.077467	248.493854	700.215947	-379.165032	232.822939	683.598998	-280.855571	157.728552	580.355314	-402.863694	122.808398	504.014092	-383.347531	53.396864	447.481675	-393.995903	125.977645	505.588298	-341.133100	-36.159923	346.897170	-393.776325	-115.688682	331.137647	-360.729067	151.229890	219.504921	-354.918731	68.057549	222.820778	-419.824383	-257.858638	965.071819	-232.184084	-75.556203	83.410926	-437.182345	-82.423295	78.979799	-40.281845	
256	1.2800	445.382109	1432.604651	-72.101380	433.450462	1426.007832	-368.396779	424.202863	1460.035640	-221.807712	388.814254	1321.419954	-218.782565	465.642524	1110.803517	68.881869	689.240915	936.132331	-37.093931	464.631623	1117.199758	-506.132215	697.616383	935.283394	-426.487482	-127.362519	1202.692133	-241.792302	36.549742	1238.563773	-364.273228	35.024899	1227.780954	-87.917763	70.123678	1162.955105	-351.912294	49.628853	1178.802131	-102.608317	-100.873583	1240.533843	-189.778515	-83.174102	1248.903327	-297.196086	-22.737478	1125.169771	-40.092540	-21.076470	1091.295401	-408.893222	122.250117	1073.764114	-40.731176	208.672668	1065.142079	-53.420818	281.546011	1020.358139	-50.564740	217.716285	1095.583402	-72.771546	402.232418	945.971454	-86.047901	396.999785	931.140586	-192.108662	349.954513	812.782710	-62.200235	335.326770	726.035437	-81.292389	283.939515	656.741455	-76.397324	351.982092	723.559179	-117.009158	223.155463	536.477409	-77.248959	151.255490	507.371629	-106.545308	432.034402	433.657150	-119.462149	349.977107	415.071604	-49.011649	41.030257	985.980000	-414.150159	113.104365	934.923042	-416.504849	141.060815	957.490934	-408.364780	150.135753	854.087248	-412.012143	248.532334	700.253781	-379.093403	232.851083	683.635680	-280.777456	157.691015	580.445819	-402.824549	122.776631	504.122455	-383.319800	53.347509	447.619880	-393.937393	125.951261	505.652352	-341.093238	-36.227687	347.036674	-393.735329	-115.772928	331.248622	-360.690573	151.171287	219.585433	-354.915304	67.987703	222.942154	-419.819944	-257.863789	965.069304	-232.185419	-75.544807	83.417737	-437.183705	-82.385223	78.996547	-40.287109	
